<svg focusable="false" viewBox="0 0 40 40">
<path d="M21.003,9.289"/>
<line x1="9.231" y1="25.381" x2="30.775" y2="25.381"/>
<path d="M16.503,30.075c0,1.933,1.567,3.5,3.5,3.5c1.934,0,3.5-1.567,3.5-3.5"/>
<path d="M32.468,29.741l-1.692-4.36v-4.676c0-0.236-0.007-0.472-0.021-0.705
	H30.75c0-5.938-4.813-10.75-10.75-10.75C14.062,9.25,9.25,14.063,9.25,20l-0.019,3.364v2.018l-1.693,4.36
	c-0.127,0.328,0.107,0.684,0.449,0.684h24.031C32.361,30.425,32.595,30.069,32.468,29.741z"/>
<path d="M17.544,9.533C17.763,8.375,18.779,7.5,20,7.5 s2.237,0.875,2.456,2.032"/>
<path d="M21.003,9.289c-0.263-0.026-0.529-0.041-0.798-0.046
	c-0.406-0.008-0.808,0.008-1.202,0.045c-5.48,0.52-9.771,5.268-9.771,11.049v3.026v2.017l-1.693,4.36
	c-0.127,0.327,0.107,0.684,0.449,0.684h24.031c0.343,0,0.576-0.356,0.449-0.684l-1.692-4.36v-4.676c0-0.236-0.007-0.472-0.021-0.706
	"/>
</svg>