<svg focusable="false" viewBox="0 0 30 33">
    <path d="M16.29 10.12a9.67 9.67 0 0 0-3-.58V7.19h-1v2.38a2.88 2.88 0 0 0-2.91 3c0 2.22 1.73 2.75 3 3.14 1.78.42 3.32.85 3.32 2.21s-1.56 2-3.4 2a5.36 5.36 0 0 1-2.83-.78l-.27 1.14a6.47 6.47 0 0 0 3 .68h.06v2.34h1v-2.39c2.44-.28 3.49-1.5 3.49-3.21 0-2-1.56-2.62-3.9-3.18-1.37-.4-2.46-.76-2.46-2.1s1.06-1.87 2.38-1.87a8.38 8.38 0 0 1 3.23.67z"/>
    <path d="M18.63 1L23 6.08V29H3V1h15.63m0-1H3a1 1 0 0 0-1 1v28a1 1 0 0 0 1 1h20a1 1 0 0 0 1-1V6.08a1 1 0 0 0-.24-.65L19.39.35a1 1 0 0 0-.76-.35z"/>
    <path d="M23 6.41h-4.28a.49.49 0 0 1-.49-.49V1a.49.49 0 1 1 1 0v4.42H23a.49.49 0 0 1 0 1z"/>

    <circle cx="21" cy="25" r="7.4"/>

    <path class='bill-late' d="M20.38 27.73v1.39h1.26v-1.39zm-.15-7.21V22l.31 4.29h.95l.3-4.29v-1.49z"/>

    <path class='bill-paid' d="M19.61 28.28a.5.5 0 0 1-.35-.15l-2.39-2.39a.5.5 0 0 1 .71-.71l2 2 4.9-4.91a.5.5 0 0 1 .71.71L20 28.14a.5.5 0 0 1-.39.14z"/>
</svg>
