<svg focusable="false" viewBox="0 0 30 30">
    <path d="M16.83 22l.86 1.48a1 1 0 0 0 1.33.35l1.68-1a1 1 0 0 0 .3-1.25l-.86-1.49A7.26 7.26 0 0 0 22 16.94h1.72a1 1 0 0 0 1-1V14a1 1 0 0 0-1-1H22a7.26 7.26 0 0 0-1.83-3.15L21 8.42a1 1 0 0 0-.36-1.32L19 6.13a1 1 0 0 0-1.33.35L16.83 8a7.32 7.32 0 0 0-3.65 0l-.86-1.49A1 1 0 0 0 11 6.13l-1.68 1A1 1 0 0 0 9 8.42l.86 1.49A7.26 7.26 0 0 0 8 13.06H6.27a1 1 0 0 0-1 1V16a1 1 0 0 0 1 1H8a7.26 7.26 0 0 0 1.83 3.15L9 21.58a1 1 0 0 0 .36 1.32l1.68 1a1 1 0 0 0 1.33-.35l.8-1.55a7.32 7.32 0 0 0 3.65 0z"/>
    <ellipse cx="15" cy="15" rx="3.73" ry="3.75"/>
</svg>
