<svg focusable="false" viewBox="0 0 30 30">
    <path d="M8.15 7.55A1.54 1.54 0 0 1 9.68 6h8.46l3.71 3.82v12.62A1.54 1.54 0 0 1 20.33 24H9.67a1.53 1.53 0 0 1-1.52-1.55z"/>
    <path d="M16.86 12.57a5.38 5.38 0 0 0-1.69-.33v-1.37h-.59v1.37A1.65 1.65 0 0 0 12.94 14c0 1.28 1 1.59 1.72 1.81 1 .24 1.88.49 1.88 1.28s-.89 1.16-1.93 1.16a3 3 0 0 1-1.6-.45l-.17.66a3.61 3.61 0 0 0 1.71.4v1.35h.59V18.8c1.39-.16 2-.86 2-1.86 0-1.17-.88-1.52-2.21-1.84-.78-.23-1.39-.44-1.39-1.22s.6-1.08 1.35-1.08a4.67 4.67 0 0 1 1.83.39l.13-.63z"/>
    <path style="stroke-linejoin:round;" d="M17.82 6v4.15h4"/>
</svg>
