<svg focusable="false" viewBox="0 0 30 30">
    <defs>
        <style>
            .cls-2{fill:#555}.cls-3{clip-path:url(#clip-path)}.cls-4{fill:#fff}
        </style>
        <clipPath id="clip-path">
            <circle cx="15" cy="15" r="15"/>
        </clipPath>
    </defs>
    <path class="cls-2" d="M25.78 25.43a15 15 0 1 0-21.63-.07z"/>
    <path class="cls-4" d="M.73 28l3.39-2.6c1-.49 2-.91 3-1.33.78-.32 1.56-.64 2.33-1a1.13 1.13 0 0 0 .49-.53 6.9 6.9 0 0 0 .36-1.17.71.71 0 0 1 .54-.62.47.47 0 0 0 .27-.32c.1-.64.16-1.29.23-1.94a.43.43 0 0 0-.07-.29 5 5 0 0 1-1.15-2.62c-.07-.43-.41-.8-.5-1.23a20.1 20.1 0 0 1-.28-2.11.33.33 0 0 1 .21-.24c.3-.08.31-.29.31-.54V7.97a3.71 3.71 0 0 1 1.84-3.29s3.62-2.37 6.85.26a8.66 8.66 0 0 1 1.19 1.2 3.72 3.72 0 0 1 .55 2.37c.05 1 0 2 0 3 0 .23 0 .45.24.6a.5.5 0 0 1 .14.38 5.11 5.11 0 0 1-.59 2.69 3 3 0 0 0-.26.84 5.24 5.24 0 0 1-.84 2 .8.8 0 0 0-.13.47v1.84c0 .18.18.36.27.53a4 4 0 0 1 .31.51 4.14 4.14 0 0 1 .23.8 1.54 1.54 0 0 0 1.14 1.19c1.41.55 2.81 1.1 4.19 1.72l.58.26 3.7 2.66-3.79 5.3-20.26-.6z"/>
</svg>
