<svg focusable="false" viewBox="0 0 69.184 22.592">
    <path d="M15.712 22.592h-3.104l-6.336-9.024-3.040 4.448h-3.232l4.736-6.72-4.416-6.304h3.232l2.72 4.032 2.752-4.032h3.232l-4.416 6.304zM15.04 3.776q0-1.792 0.912-2.784t2.544-0.992q1.312 0 2.272 0.352v2.272l-0.72-0.144t-0.816-0.080q-0.736 0-1.056 0.304t-0.32 1.040v1.248h2.912v2.24h-2.912v10.784h-2.816v-10.784h-2.88l1.536-2.24h1.344v-1.216zM25.44 18.016h-2.816v-13.024h2.816v13.024zM34.56 4.736q2.304 0 3.504 1.472t1.2 4.352v7.456h-2.816v-7.36q0-1.856-0.608-2.688t-1.984-0.832q-1.248 0-1.904 0.848t-0.656 2.448v7.584h-2.816v-13.024h2.816v1.184q0.512-0.64 1.376-1.040t1.888-0.4zM44.992 18.016h-2.848v-13.024h2.848v13.024zM47.04 7.232v-2.24h2.048v-3.232l2.816-1.44v4.672h2.432l0.832 2.24h-3.264v7.072q0 0.864 0.4 1.248t1.264 0.384q0.416 0 0.784-0.064t0.496-0.128l-0.32 2.272q-0.864 0.256-1.984 0.256-1.632 0-2.544-0.992t-0.912-2.784v-7.264h-2.048zM59.52 22.592h-2.976l3.36-6.24-4.352-11.36h2.944l3.104 8.288 4.512-8.288h3.072zM65.152 17.248q0-0.64 0.448-1.088t1.12-0.448q0.64 0 1.088 0.448t0.448 1.088-0.464 1.104-1.104 0.464-1.088-0.464-0.448-1.104zM68.096 17.248q0-0.576-0.4-0.992t-0.976-0.416q-0.608 0-1.008 0.416t-0.4 0.992 0.4 0.992 0.976 0.416q0.608 0 1.008-0.416t0.4-0.992zM66.08 16.384h0.736q0.288 0 0.48 0.192 0.128 0.096 0.128 0.32 0 0.416-0.384 0.512l0.448 0.608h-0.384l-0.384-0.544h-0.32v0.544h-0.32v-1.632zM66.784 17.184q0.32 0 0.32-0.256t-0.32-0.256h-0.384v0.512h0.384z"/>
</svg>